<?xml version="1.0" standalone="no"?>
<!DOCTYPE svg PUBLIC "-//W3C//DTD SVG 20010904//EN"
 "http://www.w3.org/TR/2001/REC-SVG-20010904/DTD/svg10.dtd">
<svg version="1.0" xmlns="http://www.w3.org/2000/svg"
 width="463.000000pt" height="205.000000pt" viewBox="0 0 463.000000 205.000000"
 preserveAspectRatio="xMidYMid meet">

<g transform="translate(0.000000,205.000000) scale(0.100000,-0.100000)"
fill="#B0C4DE" stroke="none">
<path d="M4 1855 c0 -104 2 -146 3 -92 2 54 2 139 0 190 -1 51 -3 7 -3 -98z"/>
<path d="M3 1605 c0 -22 2 -30 4 -17 2 12 2 30 0 40 -3 9 -5 -1 -4 -23z"/>
<path d="M724 1557 c-26 -14 -34 -27 -34 -59 0 -17 8 -33 20 -40 14 -9 20 -24
20 -51 0 -32 5 -41 30 -55 28 -16 30 -20 30 -83 l0 -66 -51 -52 c-50 -50 -54
-51 -109 -51 -54 0 -59 2 -84 35 -21 28 -34 35 -60 35 -20 0 -40 8 -51 20 -35
39 -105 10 -105 -43 0 -52 71 -76 110 -37 29 29 62 26 83 -10 17 -29 21 -30
86 -30 l67 0 -10 -45 -11 -45 -51 0 c-38 0 -55 5 -69 20 -35 39 -105 10 -105
-43 0 -51 70 -76 105 -37 14 15 31 20 70 20 l52 0 10 -45 10 -45 -68 0 c-66 0
-69 -1 -84 -30 -19 -36 -62 -41 -90 -10 -23 26 -59 26 -85 0 -24 -24 -25 -48
-4 -78 19 -28 67 -29 94 -2 12 12 33 20 55 20 28 0 37 5 50 30 15 29 18 30 83
30 67 -1 67 -1 115 -49 46 -48 47 -49 47 -114 0 -64 -1 -67 -30 -82 -25 -13
-30 -22 -30 -50 0 -22 -8 -43 -20 -55 -49 -49 -3 -126 60 -100 41 17 49 53 21
90 -30 42 -27 75 9 97 29 16 30 21 30 84 l0 66 45 -10 45 -10 0 -49 c0 -35 -6
-54 -20 -68 -47 -47 -3 -126 58 -104 41 14 51 57 24 94 -16 21 -22 43 -22 78
0 46 2 50 28 55 15 3 35 9 45 12 15 6 17 0 17 -64 0 -68 1 -71 30 -86 36 -19
42 -63 10 -83 -30 -19 -27 -77 5 -98 21 -14 30 -14 55 -4 39 16 48 51 24 88
-11 15 -21 43 -24 62 -4 25 -14 40 -37 55 -31 19 -32 23 -33 82 0 61 1 63 50
113 l51 50 67 0 c64 0 68 -1 84 -30 14 -25 23 -30 55 -30 27 0 42 -6 51 -20
15 -24 64 -27 86 -4 22 21 20 67 -2 87 -25 23 -58 21 -82 -3 -30 -30 -72 -26
-92 10 -16 29 -20 30 -83 30 -36 0 -65 3 -65 8 0 4 5 24 11 45 10 37 10 37 62
37 41 0 55 -4 65 -20 22 -36 99 -18 103 23 7 65 -57 101 -101 57 -15 -15 -33
-20 -69 -20 -56 0 -56 0 -65 53 l-7 37 69 0 c68 0 70 1 82 30 15 36 57 41 85
10 22 -24 67 -26 89 -4 24 23 20 70 -6 88 -30 21 -54 20 -78 -4 -12 -12 -33
-20 -55 -20 -30 0 -39 -5 -56 -35 -20 -34 -23 -35 -80 -35 -59 0 -60 1 -114
55 -55 54 -55 55 -55 115 0 59 1 61 35 81 29 17 35 27 35 55 0 21 8 42 20 54
44 44 8 108 -57 101 -41 -4 -59 -81 -23 -103 31 -20 26 -63 -10 -85 -29 -17
-30 -20 -30 -85 0 -37 -3 -68 -7 -68 -5 0 -25 5 -45 11 -37 10 -38 11 -38 60
0 36 6 56 20 72 27 29 22 65 -13 91 -26 19 -30 19 -55 5 -36 -20 -44 -81 -13
-101 17 -10 21 -23 21 -65 0 -49 -2 -53 -27 -59 -16 -3 -36 -8 -45 -11 -16 -4
-18 4 -18 62 0 63 -1 67 -30 83 -36 20 -40 62 -10 92 25 25 26 62 3 82 -27 23
-47 27 -69 15z m44 -50 c4 -22 -27 -35 -38 -16 -10 15 7 42 24 36 6 -2 12 -11
14 -20z m380 0 c4 -21 -25 -34 -40 -19 -8 8 -8 16 2 27 16 19 34 15 38 -8z
m-190 -100 c4 -20 -25 -34 -39 -20 -14 14 1 45 20 41 9 -2 17 -11 19 -21z m77
-226 c88 -40 144 -126 145 -221 0 -98 -60 -190 -148 -227 -46 -19 -140 -18
-188 2 -150 62 -195 258 -88 384 62 73 191 102 279 62z m-620 -21 c9 -15 -14
-40 -31 -33 -22 8 -18 43 5 43 11 0 23 -5 26 -10z m1091 -1 c8 -14 -21 -43
-35 -35 -6 4 -11 16 -11 27 0 21 34 27 46 8z m-990 -190 c8 -14 -21 -43 -35
-35 -19 12 -13 46 8 46 11 0 23 -5 27 -11z m888 2 c9 -14 -4 -41 -19 -41 -18
0 -28 17 -21 35 6 17 32 20 40 6z m-989 -191 c9 -15 -14 -40 -31 -33 -22 8
-18 43 5 43 11 0 23 -5 26 -10z m1090 0 c9 -15 -14 -40 -31 -33 -22 8 -18 43
5 43 11 0 23 -5 26 -10z m-547 -268 c3 -16 -2 -22 -17 -22 -26 0 -36 17 -20
36 16 19 33 13 37 -14z m-190 -95 c4 -21 -27 -35 -38 -17 -12 19 0 42 19 38 9
-2 17 -11 19 -21z m380 0 c4 -20 -25 -34 -39 -20 -14 14 1 45 20 41 9 -2 17
-11 19 -21z"/>
<path d="M850 1107 l-75 -43 -3 -100 c-2 -73 1 -104 10 -112 28 -22 141 -82
157 -82 19 0 152 76 163 93 4 7 8 51 8 99 0 87 0 87 -32 111 -49 36 -123 77
-139 77 -8 0 -48 -19 -89 -43z m157 -32 l63 -36 0 -79 0 -80 -47 -30 c-73 -46
-85 -46 -155 -8 l-63 35 -3 75 c-2 61 0 78 14 89 23 19 107 68 118 68 5 1 38
-15 73 -34z"/>
<path d="M4 1315 c0 -126 2 -177 3 -112 2 65 2 168 0 230 -1 62 -3 9 -3 -118z"/>
<path d="M2505 1259 c-39 -12 -62 -30 -66 -52 -2 -10 -8 -18 -12 -17 -5 1 -17
-9 -28 -21 -17 -20 -19 -39 -19 -224 0 -196 1 -203 23 -236 13 -19 29 -33 36
-31 7 1 10 -2 6 -7 -12 -21 56 -43 129 -41 76 2 139 1 171 -3 18 -2 20 5 23
54 l3 56 -126 -1 c-70 -1 -131 1 -136 4 -13 9 -28 99 -22 137 5 31 8 33 47 34
22 1 53 0 69 -1 26 -1 27 0 27 54 l0 56 -62 0 c-82 0 -92 7 -83 58 11 66 25
72 163 73 l122 1 0 57 0 56 -117 2 c-65 1 -131 -3 -148 -8z"/>
<path d="M3658 1251 c-13 -11 -30 -39 -37 -63 -7 -24 -23 -79 -36 -123 -91
-306 -125 -422 -125 -427 0 -4 13 -9 29 -13 32 -7 83 3 76 15 -3 5 -1 19 4 32
6 13 10 17 11 8 1 -19 30 59 30 82 0 10 9 34 20 55 l19 38 61 -3 c56 -4 60 -6
66 -30 15 -70 62 -196 74 -200 7 -3 10 -1 7 4 -3 5 17 7 43 6 l49 -4 -26 84
c-14 45 -29 85 -34 86 -5 2 -7 8 -3 13 8 13 -6 50 -16 44 -5 -3 -9 12 -8 32 0
21 -16 90 -35 153 -20 63 -41 134 -47 157 -8 31 -19 47 -40 58 -38 20 -52 19
-82 -4z m71 -278 c1 -7 -10 -13 -24 -13 -28 0 -32 20 -14 67 l11 28 13 -35 c8
-19 14 -41 14 -47z"/>
<path d="M1926 1253 c-40 -10 -97 -54 -123 -96 -93 -146 -80 -333 31 -450 55
-58 85 -74 131 -72 17 1 45 3 63 3 21 1 32 7 32 17 0 8 9 15 20 15 10 0 24 9
30 20 6 11 17 20 25 20 18 0 73 113 81 168 6 36 4 42 -11 42 -10 0 -16 3 -12
6 3 4 0 13 -8 20 -10 10 -42 14 -114 14 l-101 0 0 -60 0 -60 60 0 c33 0 60 -4
60 -9 0 -19 -48 -77 -73 -89 -85 -41 -177 81 -164 219 9 105 69 189 134 189
12 0 38 -13 56 -30 30 -26 43 -30 91 -30 31 0 56 4 56 9 0 13 -50 84 -73 104
-60 49 -126 66 -191 50z"/>
<path d="M2936 1163 c2 -54 9 -99 14 -101 13 -5 13 -32 0 -32 -5 0 -10 -7 -10
-15 0 -8 4 -15 10 -15 6 0 6 -9 0 -26 -13 -33 -13 -54 0 -34 8 12 10 10 10 -8
0 -13 -4 -21 -9 -18 -5 4 -7 -24 -4 -66 3 -40 5 -95 5 -123 1 -27 6 -54 12
-60 42 -41 84 -12 79 55 -2 25 -1 68 2 97 6 47 9 52 35 58 39 9 67 -1 73 -26
3 -12 10 -18 16 -14 7 3 11 -2 11 -14 0 -12 4 -21 9 -21 9 0 32 -91 35 -137 1
-16 9 -24 26 -27 36 -6 87 -5 73 1 -14 5 -18 45 -6 57 13 13 12 41 -2 62 -7
12 -17 37 -20 58 -4 20 -13 36 -20 36 -17 0 -32 63 -16 68 6 2 9 8 6 12 -3 5
3 18 15 30 11 11 20 26 20 34 0 8 7 16 15 20 19 7 20 75 1 119 -28 65 -99 124
-136 112 -12 -4 -20 -2 -20 4 0 7 -40 11 -114 11 l-115 0 5 -97z m258 -44 c57
-67 9 -148 -91 -155 -59 -5 -72 28 -57 140 l7 46 57 0 c53 0 61 -3 84 -31z"/>
<path d="M3 1025 c0 -22 2 -30 4 -17 2 12 2 30 0 40 -3 9 -5 -1 -4 -23z"/>
<path d="M4 750 c0 -124 2 -174 3 -112 2 61 2 163 0 225 -1 61 -3 11 -3 -113z"/>
<path d="M3 465 c0 -22 2 -30 4 -17 2 12 2 30 0 40 -3 9 -5 -1 -4 -23z"/>
<path d="M4 205 c0 -116 2 -161 3 -102 2 59 2 154 0 210 -1 56 -3 8 -3 -108z"/>
</g>
</svg>
